<svg width="75" height="75" viewBox="0 0 75 75" fill="none" xmlns="http://www.w3.org/2000/svg">
<path d="M30.3857 12.8394C30.3857 11.2889 30.8319 9.77325 31.668 8.48407C32.5041 7.19488 33.6924 6.19009 35.0828 5.59674C36.4731 5.0034 38.003 4.84815 39.479 5.15064C40.955 5.45312 42.3108 6.19975 43.3749 7.29611C44.439 8.39247 45.1637 9.78932 45.4573 11.31C45.7509 12.8307 45.6002 14.407 45.0243 15.8394C44.4484 17.2719 43.4731 18.4962 42.2218 19.3576C40.9706 20.219 39.4995 20.6788 37.9946 20.6788C35.9766 20.6788 34.0412 19.8529 32.6143 18.3827C31.1873 16.9125 30.3857 14.9185 30.3857 12.8394ZM61.7507 42.1756L49.4541 27.8127C48.7401 26.9785 47.862 26.3104 46.878 25.8528C45.8941 25.3952 44.827 25.1585 43.7474 25.1585H32.2417C31.1622 25.1585 30.095 25.3952 29.1111 25.8528C28.1272 26.3104 27.249 26.9785 26.535 27.8127L14.2385 42.1756C13.44 43.0173 12.9951 44.149 13 45.3259C13.0049 46.5029 13.4592 47.6305 14.2647 48.4652C15.0701 49.2998 16.162 49.7743 17.3043 49.7861C18.4466 49.7979 19.5475 49.3461 20.3691 48.5283L27.3964 42.7131L22.043 63.6779C21.5773 64.7552 21.5426 65.9782 21.9466 67.0817C22.3505 68.1851 23.1605 69.0799 24.2007 69.5719C25.241 70.0639 26.4276 70.1135 27.503 69.7098C28.5785 69.3061 29.4561 68.4818 29.9454 67.4157L37.9946 53.1563L46.0328 67.4353C46.5221 68.5014 47.3997 69.3257 48.4752 69.7294C49.5507 70.1331 50.7373 70.0835 51.7775 69.5915C52.8178 69.0995 53.6278 68.2047 54.0317 67.1012C54.4356 65.9978 54.401 64.7748 53.9352 63.6975L48.5927 42.7131L55.6309 48.5283C56.4525 49.3461 57.5534 49.7979 58.6957 49.7861C59.838 49.7743 60.9299 49.2998 61.7353 48.4652C62.5408 47.6305 62.9951 46.5029 63 45.3259C63.0049 44.149 62.56 43.0173 61.7615 42.1756H61.7507Z" fill="#769DFF"/>
</svg>
