<svg width="75" height="75" viewBox="0 0 75 75" fill="none" xmlns="http://www.w3.org/2000/svg">
<path d="M37.5 11C34.02 11 30.574 11.6854 27.3589 13.0172C24.1438 14.3489 21.2224 16.3009 18.7617 18.7617C13.792 23.7314 11 30.4718 11 37.5C11 44.5282 13.792 51.2686 18.7617 56.2383C21.2224 58.6991 24.1438 60.6511 27.3589 61.9828C30.574 63.3146 34.02 64 37.5 64C44.5282 64 51.2686 61.208 56.2383 56.2383C61.208 51.2686 64 44.5282 64 37.5C64 34.02 63.3146 30.574 61.9828 27.3589C60.6511 24.1438 58.6991 21.2224 56.2383 18.7617C53.7776 16.3009 50.8562 14.3489 47.6411 13.0172C44.426 11.6854 40.98 11 37.5 11ZM48.63 48.63L34.85 40.15V24.25H38.825V38.03L50.75 45.185L48.63 48.63Z" fill="#FFBA58"/>
</svg>
