<svg width="75" height="75" viewBox="0 0 75 75" fill="none" xmlns="http://www.w3.org/2000/svg">
<path d="M37.5 28C35.8092 28 34.1877 27.3327 32.9922 26.145C31.7967 24.9573 31.125 23.3464 31.125 21.6667C31.125 19.987 31.7967 18.3761 32.9922 17.1883C34.1877 16.0006 35.8092 15.3333 37.5 15.3333C41.0381 15.3333 43.875 18.1517 43.875 21.6667C43.875 23.3464 43.2033 24.9573 42.0078 26.145C40.8123 27.3327 39.1908 28 37.5 28ZM37.5 43.8333C35.8092 43.8333 34.1877 43.1661 32.9922 41.9783C31.7967 40.7906 31.125 39.1797 31.125 37.5C31.125 35.8203 31.7967 34.2094 32.9922 33.0217C34.1877 31.8339 35.8092 31.1667 37.5 31.1667C41.0381 31.1667 43.875 33.985 43.875 37.5C43.875 39.1797 43.2033 40.7906 42.0078 41.9783C40.8123 43.1661 39.1908 43.8333 37.5 43.8333ZM37.5 59.6667C35.8092 59.6667 34.1877 58.9994 32.9922 57.8117C31.7967 56.6239 31.125 55.013 31.125 53.3333C31.125 51.6536 31.7967 50.0427 32.9922 48.855C34.1877 47.6673 35.8092 47 37.5 47C41.0381 47 43.875 49.8183 43.875 53.3333C43.875 55.013 43.2033 56.6239 42.0078 57.8117C40.8123 58.9994 39.1908 59.6667 37.5 59.6667ZM63 31.1667H53.4375V27.5567C58.92 26.1317 63 21.2233 63 15.3333H53.4375V12.1667C53.4375 11.3268 53.1017 10.5214 52.5039 9.9275C51.9061 9.33363 51.0954 9 50.25 9H24.75C23.9046 9 23.0939 9.33363 22.4961 9.9275C21.8983 10.5214 21.5625 11.3268 21.5625 12.1667V15.3333H12C12 21.2233 16.08 26.1317 21.5625 27.5567V31.1667H12C12 37.0567 16.08 41.965 21.5625 43.39V47H12C12 52.89 16.08 57.7983 21.5625 59.2233V62.8333C21.5625 63.6732 21.8983 64.4786 22.4961 65.0725C23.0939 65.6664 23.9046 66 24.75 66H50.25C51.0954 66 51.9061 65.6664 52.5039 65.0725C53.1017 64.4786 53.4375 63.6732 53.4375 62.8333V59.2233C58.92 57.7983 63 52.89 63 47H53.4375V43.39C58.92 41.965 63 37.0567 63 31.1667Z" fill="#515151"/>
</svg>
