<svg width="75" height="75" viewBox="0 0 75 75" fill="none" xmlns="http://www.w3.org/2000/svg">
<path d="M38 10C53.4644 10 66 22.5356 66 38C66 53.4644 53.4644 66 38 66C22.5356 66 10 53.4644 10 38C10 22.5356 22.5356 10 38 10ZM38 15.6C32.0592 15.6 26.3616 17.96 22.1608 22.1608C17.96 26.3616 15.6 32.0592 15.6 38C15.6 43.9408 17.96 49.6384 22.1608 53.8392C26.3616 58.04 32.0592 60.4 38 60.4C43.9408 60.4 49.6384 58.04 53.8392 53.8392C58.04 49.6384 60.4 43.9408 60.4 38C60.4 32.0592 58.04 26.3616 53.8392 22.1608C49.6384 17.96 43.9408 15.6 38 15.6ZM38 21.2C38.6858 21.2001 39.3477 21.4519 39.8602 21.9076C40.3727 22.3633 40.7002 22.9913 40.7804 23.6724L40.8 24V36.8408L48.3796 44.4204C48.8818 44.9243 49.1733 45.6004 49.195 46.3115C49.2168 47.0225 48.967 47.7152 48.4965 48.2488C48.026 48.7824 47.3701 49.1169 46.6619 49.1843C45.9537 49.2518 45.2464 49.0472 44.6836 48.612L44.4204 48.3796L36.0204 39.9796C35.5852 39.544 35.3057 38.9772 35.2252 38.3668L35.2 38V24C35.2 23.2574 35.495 22.5452 36.0201 22.0201C36.5452 21.495 37.2574 21.2 38 21.2Z" fill="#FFCC00"/>
</svg>
