<svg width="75" height="75" viewBox="0 0 75 75" fill="none" xmlns="http://www.w3.org/2000/svg">
<path d="M61.645 30.0929L57.8775 18.6977C57.3324 17.0341 56.2809 15.5872 54.8732 14.5639C53.4656 13.5406 51.7739 12.9933 50.04 13.0001H24.9875C23.2546 12.9975 21.5648 13.5465 20.158 14.5692C18.7512 15.5919 17.6988 17.0364 17.15 18.6977L13.3825 30.0929C11.4025 30.9267 10 32.9278 10 35.2068V49.1034C10.0058 50.0735 10.2627 51.0251 10.7451 51.8637C11.2275 52.7024 11.9187 53.3988 12.75 53.8838V60.2207C12.75 61.7493 13.9875 63 15.5 63H18.25C19.7625 63 21 61.7493 21 60.2207V54.662H54V60.2207C54 61.7493 55.2375 63 56.75 63H59.5C61.0125 63 62.25 61.7493 62.25 60.2207V53.8838C63.0813 53.3988 63.7725 52.7024 64.2549 51.8637C64.7373 51.0251 64.9942 50.0735 65 49.1034V35.2068C65 32.9 63.5975 30.9267 61.6175 30.0929H61.645ZM56.7775 42.1551C56.7775 44.4619 54.935 46.3241 52.6525 46.3241C50.37 46.3241 48.5275 44.4619 48.5275 42.1551C48.5275 39.8483 50.37 37.9861 52.6525 37.9861C54.935 37.9861 56.7775 39.8483 56.7775 42.1551ZM26.5275 42.1551C26.5275 44.4619 24.685 46.3241 22.4025 46.3241C20.12 46.3241 18.2775 44.4619 18.2775 42.1551C18.2775 39.8483 20.12 37.9861 22.4025 37.9861C24.685 37.9861 26.5275 39.8483 26.5275 42.1551ZM24.9875 18.5309H50.0675C50.644 18.5294 51.2064 18.7111 51.6752 19.0502C52.144 19.3893 52.4955 19.8688 52.68 20.4208L55.7325 29.6482H19.35L22.4025 20.4208C22.587 19.8688 22.9385 19.3893 23.4073 19.0502C23.8761 18.7111 24.4385 18.5294 25.015 18.5309H24.9875Z" fill="#FF6A00"/>
</svg>
