<svg width="75" height="75" viewBox="0 0 75 75" fill="none" xmlns="http://www.w3.org/2000/svg">
<path d="M54.6732 65.9995C52.1891 65.9995 48.6997 65.1012 43.4745 62.1825C37.1205 58.62 32.2058 55.331 25.8861 49.0291C19.793 42.9409 16.8279 38.9992 12.678 31.4492C7.9898 22.9245 8.78898 18.4561 9.68233 16.5463C10.7462 14.2637 12.3166 12.8985 14.3463 11.5435C15.4992 10.7883 16.7193 10.1409 17.991 9.60954C18.1183 9.55483 18.2366 9.50266 18.3423 9.45559C18.9722 9.17186 19.9266 8.74308 21.1356 9.20112C21.9424 9.50394 22.6627 10.1236 23.7902 11.2369C26.1025 13.5169 29.2623 18.5948 30.428 21.0886C31.2106 22.7693 31.7285 23.8788 31.7298 25.1231C31.7298 26.58 30.9968 27.7034 30.1073 28.916C29.9406 29.1437 29.7751 29.3613 29.6148 29.5725C28.6463 30.8448 28.4338 31.2125 28.5738 31.8691C28.8576 33.1885 30.9739 37.1162 34.4519 40.5859C37.9298 44.0555 41.745 46.0378 43.0698 46.3203C43.7544 46.4666 44.1298 46.2452 45.4431 45.2426C45.6315 45.0988 45.8249 44.95 46.0273 44.8011C47.3838 43.7921 48.4553 43.0784 49.8781 43.0784H49.8857C51.1239 43.0784 52.184 43.6153 53.9402 44.5008C56.2308 45.6561 61.4624 48.7746 63.7569 51.089C64.8729 52.2137 65.4952 52.9313 65.7994 53.7367C66.2575 54.9493 65.8261 55.8997 65.5448 56.5359C65.4978 56.6415 65.4456 56.7572 65.3909 56.8858C64.8552 58.155 64.2039 59.3722 63.4451 60.5221C62.0923 62.5451 60.7218 64.1114 58.4337 65.1763C57.2587 65.732 55.9729 66.0135 54.6732 65.9995Z" fill="#51A2FF"/>
</svg>
