<svg width="75" height="75" viewBox="0 0 75 75" fill="none" xmlns="http://www.w3.org/2000/svg">
<path d="M22.144 15.2967L48.588 26.753L38 31.3387L11.708 19.9471C12.3 19.3365 13.024 18.8431 13.848 18.5237L22.144 15.2967ZM27.496 13.2181L33.696 10.8079C36.4678 9.73068 39.5362 9.73068 42.308 10.8079L62.156 18.5237C62.976 18.8472 63.7 19.3324 64.292 19.9471L53.668 24.5491L27.496 13.2181ZM65.976 23.619L40 34.8731V65C40.7867 64.8652 41.556 64.6522 42.308 64.3611L62.156 56.6413C63.2875 56.2008 64.2605 55.4241 64.9467 54.4134C65.6329 53.4028 66.0002 52.2057 66 50.9799V24.1851C66 23.9964 65.9907 23.8077 65.972 23.619M36 65V34.8731L10.028 23.619C10.0121 23.8073 10.0028 23.9961 10 24.1851V50.9799C10.0002 52.2062 10.368 53.4036 11.0549 54.4143C11.7419 55.425 12.7157 56.2015 13.848 56.6413L33.692 64.3611C34.444 64.6522 35.2133 64.8652 36 65Z" fill="#72D584"/>
</svg>
