<svg width="75" height="75" viewBox="0 0 75 75" fill="none" xmlns="http://www.w3.org/2000/svg">
<path fill-rule="evenodd" clip-rule="evenodd" d="M41 11C41 10.2044 40.6839 9.44129 40.1213 8.87868C39.5587 8.31607 38.7956 8 38 8C37.2044 8 36.4413 8.31607 35.8787 8.87868C35.3161 9.44129 35 10.2044 35 11V17C35 17.7956 35.3161 18.5587 35.8787 19.1213C36.4413 19.6839 37.2044 20 38 20C38.7956 20 39.5587 19.6839 40.1213 19.1213C40.6839 18.5587 41 17.7956 41 17V11ZM21.029 16.787C20.4606 16.254 19.7072 15.9631 18.9282 15.9757C18.1491 15.9884 17.4056 16.3036 16.8548 16.8548C16.3041 17.4059 15.9894 18.1497 15.9773 18.9288C15.9652 19.7078 16.2566 20.461 16.79 21.029L21.032 25.271C21.5978 25.8175 22.3556 26.1199 23.1422 26.113C23.9288 26.1062 24.6812 25.7907 25.2375 25.2345C25.7937 24.6782 26.1092 23.9258 26.116 23.1392C26.1229 22.3526 25.8205 21.5948 25.274 21.029L21.029 16.787ZM59.213 21.029C59.7595 20.4632 60.0619 19.7054 60.055 18.9188C60.0482 18.1322 59.7327 17.3798 59.1765 16.8235C58.6202 16.2673 57.8678 15.9518 57.0812 15.945C56.2946 15.9381 55.5368 16.2405 54.971 16.787L50.729 21.029C50.1825 21.5948 49.8801 22.3526 49.887 23.1392C49.8938 23.9258 50.2093 24.6782 50.7655 25.2345C51.3218 25.7907 52.0742 26.1062 52.8608 26.113C53.6474 26.1199 54.4052 25.8175 54.971 25.271L59.213 21.029ZM38 23C34.0218 23 30.2064 24.5804 27.3934 27.3934C24.5804 30.2064 23 34.0218 23 38C23 41.9782 24.5804 45.7936 27.3934 48.6066C30.2064 51.4196 34.0218 53 38 53C41.9782 53 45.7936 51.4196 48.6066 48.6066C51.4196 45.7936 53 41.9782 53 38C53 34.0218 51.4196 30.2064 48.6066 27.3934C45.7936 24.5804 41.9782 23 38 23ZM11 35C10.2044 35 9.44129 35.3161 8.87868 35.8787C8.31607 36.4413 8 37.2044 8 38C8 38.7956 8.31607 39.5587 8.87868 40.1213C9.44129 40.6839 10.2044 41 11 41H17C17.7956 41 18.5587 40.6839 19.1213 40.1213C19.6839 39.5587 20 38.7956 20 38C20 37.2044 19.6839 36.4413 19.1213 35.8787C18.5587 35.3161 17.7956 35 17 35H11ZM59 35C58.2044 35 57.4413 35.3161 56.8787 35.8787C56.3161 36.4413 56 37.2044 56 38C56 38.7956 56.3161 39.5587 56.8787 40.1213C57.4413 40.6839 58.2044 41 59 41H65C65.7956 41 66.5587 40.6839 67.1213 40.1213C67.6839 39.5587 68 38.7956 68 38C68 37.2044 67.6839 36.4413 67.1213 35.8787C66.5587 35.3161 65.7956 35 65 35H59ZM25.271 54.971C25.5575 54.6943 25.7861 54.3632 25.9433 53.9972C26.1005 53.6312 26.1833 53.2375 26.1868 52.8392C26.1902 52.4409 26.1143 52.0458 25.9635 51.6771C25.8126 51.3084 25.5899 50.9735 25.3082 50.6918C25.0265 50.4101 24.6916 50.1874 24.3229 50.0365C23.9542 49.8857 23.5591 49.8098 23.1608 49.8132C22.7625 49.8167 22.3688 49.8995 22.0028 50.0567C21.6368 50.2139 21.3057 50.4425 21.029 50.729L16.787 54.971C16.5005 55.2477 16.2719 55.5788 16.1147 55.9448C15.9575 56.3108 15.8747 56.7045 15.8712 57.1028C15.8678 57.5011 15.9437 57.8962 16.0945 58.2649C16.2454 58.6335 16.4681 58.9685 16.7498 59.2502C17.0315 59.5319 17.3664 59.7546 17.7351 59.9055C18.1038 60.0563 18.4989 60.1322 18.8972 60.1288C19.2955 60.1253 19.6892 60.0425 20.0552 59.8853C20.4212 59.7281 20.7523 59.4995 21.029 59.213L25.271 54.971ZM54.971 50.729C54.4052 50.1825 53.6474 49.8801 52.8608 49.887C52.0742 49.8938 51.3218 50.2093 50.7655 50.7655C50.2093 51.3218 49.8938 52.0742 49.887 52.8608C49.8801 53.6474 50.1825 54.4052 50.729 54.971L54.971 59.213C55.5368 59.7595 56.2946 60.0619 57.0812 60.055C57.8678 60.0482 58.6202 59.7327 59.1765 59.1765C59.7327 58.6202 60.0482 57.8678 60.055 57.0812C60.0619 56.2946 59.7595 55.5368 59.213 54.971L54.971 50.729ZM41 59C41 58.2044 40.6839 57.4413 40.1213 56.8787C39.5587 56.3161 38.7956 56 38 56C37.2044 56 36.4413 56.3161 35.8787 56.8787C35.3161 57.4413 35 58.2044 35 59V65C35 65.7956 35.3161 66.5587 35.8787 67.1213C36.4413 67.6839 37.2044 68 38 68C38.7956 68 39.5587 67.6839 40.1213 67.1213C40.6839 66.5587 41 65.7956 41 65V59Z" fill="#FFCA8E"/>
</svg>
