<svg width="75" height="75" viewBox="0 0 75 75" fill="none" xmlns="http://www.w3.org/2000/svg">
<path d="M22.5 60C18.2258 60 14.5743 58.5234 11.5457 55.5703C8.51712 52.6172 7.00188 49.0078 7 44.7422C7 41.0859 8.10379 37.8281 10.3114 34.9688C12.5189 32.1094 15.4076 30.2812 18.9773 29.4844C20.1515 25.1719 22.5 21.6797 26.0227 19.0078C29.5455 16.3359 33.5379 15 38 15C43.4955 15 48.1577 16.9106 51.9866 20.7319C55.8156 24.5531 57.7292 29.205 57.7273 34.6875C60.9682 35.0625 63.6577 36.4575 65.7957 38.8725C67.9338 41.2875 69.0019 44.1112 69 47.3438C69 50.8594 67.7675 53.8481 65.3025 56.31C62.8376 58.7719 59.8428 60.0019 56.3182 60H22.5Z" fill="#B4C0C3"/>
</svg>
