<svg width="75" height="75" viewBox="0 0 75 75" fill="none" xmlns="http://www.w3.org/2000/svg">
<path d="M21.0967 15C21.9994 15 22.8294 15.4784 23.2842 16.248L23.4561 16.5645C23.9107 17.3341 24.7409 17.8123 25.6436 17.8125H66C67.6568 17.8126 69 19.1557 69 20.8125V22.5801C66.113 21.4145 62.6829 22.0026 60.3428 24.3428L52.8105 31.875H49.3438C49.2944 31.875 49.2453 31.8792 49.1963 31.8818L41.6572 24.3428C38.533 21.2186 33.467 21.2186 30.3428 24.3428C27.4554 27.2301 27.2389 31.7743 29.6885 34.9131V37.5C29.6885 38.2458 29.9843 38.9609 30.5107 39.4883C31.0373 40.0157 31.7514 40.3125 32.4961 40.3125H34.998L37.8105 43.125H31.4287C30.3619 43.1252 29.3796 43.7441 28.9023 44.7002L22.0225 58.4531C21.5451 59.4094 20.5904 60 19.5234 60H10.0322C9.98299 59.9999 1.64202 59.9503 12.8408 43.125C12.8766 43.0771 19.5309 34.1615 13.0107 32.2383C11.4216 31.7695 10.0322 30.5318 10.0322 28.875V19.5479C10.0322 18.5897 10.8094 17.8125 11.7676 17.8125C12.425 17.8124 13.0256 17.4407 13.3193 16.8525L13.542 16.4062C13.9722 15.5445 14.8533 15 15.8164 15H21.0967Z" fill="#E60000"/>
<path d="M36 30L51 45M66 60L51 45M51 45L66 30M51 45L36 60" stroke="#E60000" stroke-width="8" stroke-linecap="round"/>
</svg>
