<svg width="75" height="75" viewBox="0 0 75 75" fill="none" xmlns="http://www.w3.org/2000/svg">
<path d="M43.7471 25.1582C44.8265 25.1582 45.8941 25.395 46.8779 25.8525C47.2607 26.0306 47.6273 26.2413 47.9746 26.4805C45.0536 28.3308 43.541 31.5883 43.541 34.3301H43.542C43.5052 36.4617 44.1401 38.6446 45.7979 40.2998C46.2204 40.7217 46.678 41.0774 47.1602 41.374C46.4585 41.6468 45.7555 41.9505 45.0664 42.2734C42.4403 43.5044 39.5162 45.247 36.7139 47.4287L36.1553 47.8711C34.1688 49.4692 33.7551 52.2476 35.0244 54.3398L35.1836 54.6016C35.5201 55.1562 35.9373 55.6106 36.4043 55.9717L29.9453 67.416C29.456 68.482 28.5783 69.3063 27.5029 69.71C26.4276 70.1135 25.2413 70.0641 24.2012 69.5723C23.161 69.0803 22.3503 68.1854 21.9463 67.082C21.5423 65.9786 21.5772 64.755 22.043 63.6777L27.3965 42.7129L20.3691 48.5283C19.5477 49.346 18.4469 49.7979 17.3047 49.7861C16.1624 49.7743 15.0701 49.2995 14.2646 48.4648C13.4594 47.6303 13.0049 46.5029 13 45.3262C12.9951 44.1493 13.4399 43.0175 14.2383 42.1758L26.5352 27.8125C27.2492 26.9784 28.1275 26.3101 29.1113 25.8525C30.0952 25.395 31.1628 25.1582 32.2422 25.1582H43.7471ZM50.5996 69.9473L50.5879 69.9531C50.5843 69.9537 50.5807 69.9536 50.5771 69.9541C50.637 69.9224 50.6984 69.8927 50.7588 69.8604C50.7053 69.889 50.6528 69.9192 50.5996 69.9473ZM51.3379 65.2275C51.3943 65.2506 51.4565 65.2617 51.5234 65.2617C51.49 65.2617 51.4577 65.2595 51.4268 65.2539L51.3379 65.2275ZM51.7627 65.2373C51.738 65.2414 51.7142 65.2441 51.6914 65.2471C51.7142 65.2441 51.738 65.2414 51.7627 65.2373ZM61.751 42.1758H61.7617C62.5601 43.0175 63.0049 44.1493 63 45.3262C62.9951 46.503 62.5406 47.6303 61.7354 48.4648C60.9299 49.2995 59.8376 49.7743 58.6953 49.7861L58.6924 49.7852C58.9656 48.2113 59.0511 46.6295 58.7676 45.1963C58.5454 44.073 58.0354 42.7349 56.9023 41.6641C56.8042 41.5713 56.7034 41.4841 56.6016 41.4004C57.6171 40.8523 58.5249 40.1358 59.2822 39.292L61.751 42.1758ZM35.083 5.59668C36.4733 5.00342 38.0036 4.84792 39.4795 5.15039C40.9553 5.45292 42.311 6.1997 43.375 7.2959C44.4391 8.39226 45.1634 9.78985 45.457 11.3105C45.7505 12.8311 45.6003 14.4075 45.0244 15.8398C44.4485 17.2722 43.4729 18.4961 42.2217 19.3574C40.9704 20.2188 39.499 20.6787 37.9941 20.6787C35.9763 20.6786 34.0411 19.8529 32.6143 18.3828C31.1874 16.9127 30.3858 14.9189 30.3857 12.8398C30.3857 11.2894 30.832 9.77352 31.668 8.48438C32.504 7.19519 33.6927 6.19003 35.083 5.59668Z" fill="#FFC300"/>
<path d="M53.287 29C56.2 29 57.6565 30.9608 57.6565 33.2076C57.6565 36.0133 55.1261 38.6084 51.8326 38.6084C49.0739 38.6084 47.4652 36.9959 47.5413 34.3299C47.5413 32.0874 49.4565 29 53.287 29ZM44.3239 72C42.0239 72 40.3391 70.5982 41.9478 64.4234L44.587 53.4756C45.0457 51.7255 45.1217 51.0225 44.587 51.0225C44.0044 51.0225 41.7825 51.8861 40.0416 52.8741C39.5447 53.1561 38.8997 53.015 38.6033 52.5265L38.4445 52.2647C38.1887 51.8431 38.278 51.2965 38.6623 50.9874C44.0908 46.6201 50.1323 44.078 52.7848 44.078C55.0826 44.078 55.4652 46.8149 54.3174 51.0225L51.2935 62.5293C50.7587 64.561 50.987 65.2619 51.5239 65.2619C52.1275 65.2619 53.9367 64.6154 55.8693 63.2777C56.3322 62.9572 56.9734 63.0395 57.3098 63.4909L57.4851 63.726C57.781 64.1231 57.7422 64.6789 57.384 65.0209C52.1189 70.0486 46.5332 72 44.3239 72Z" fill="#FFC400"/>
</svg>
