<svg width="75" height="75" viewBox="0 0 75 75" fill="none" xmlns="http://www.w3.org/2000/svg">
<path d="M42.8116 62.4945V66H32.0128V62.4945H17V48.5603H39.5632C39.6802 48.5603 39.7388 48.5018 39.7388 48.385V45.23C39.7388 45.1132 39.6802 45.0548 39.5632 45.0548H26.1306C20.0435 45.0548 17 42.5425 17 37.518V20.5164C17 15.784 20.0435 13.4178 26.1306 13.4178H32.0128V10H42.8116V13.4178H58V27.4398H35.4368C35.3198 27.4398 35.2612 27.4982 35.2612 27.615V30.8576C35.2612 30.9744 35.3198 31.0329 35.4368 31.0329H48.8694C54.9565 31.0329 58 33.4867 58 38.3944V55.4836C58 60.1575 54.9565 62.4945 48.8694 62.4945H42.8116Z" fill="#C30000"/>
</svg>
