<svg width="75" height="75" viewBox="0 0 75 75" fill="none" xmlns="http://www.w3.org/2000/svg">
<path d="M61.6154 23.44H50.6538C50.6538 19.8755 49.268 16.457 46.8012 13.9365C44.3344 11.416 40.9886 10 37.5 10C34.0114 10 30.6657 11.416 28.1988 13.9365C25.732 16.457 24.3462 19.8755 24.3462 23.44H13.3846C12.2217 23.44 11.1065 23.912 10.2842 24.7522C9.46195 25.5923 9 26.7318 9 27.92V61.52C9 62.7082 9.46195 63.8477 10.2842 64.6878C11.1065 65.528 12.2217 66 13.3846 66H61.6154C62.7783 66 63.8935 65.528 64.7158 64.6878C65.5381 63.8477 66 62.7082 66 61.52V27.92C66 26.7318 65.5381 25.5923 64.7158 24.7522C63.8935 23.912 62.7783 23.44 61.6154 23.44ZM28.7308 34.64C28.7308 35.2341 28.4998 35.8038 28.0887 36.2239C27.6775 36.644 27.1199 36.88 26.5385 36.88C25.957 36.88 25.3994 36.644 24.9883 36.2239C24.5771 35.8038 24.3462 35.2341 24.3462 34.64V30.16C24.3462 29.5659 24.5771 28.9962 24.9883 28.5761C25.3994 28.156 25.957 27.92 26.5385 27.92C27.1199 27.92 27.6775 28.156 28.0887 28.5761C28.4998 28.9962 28.7308 29.5659 28.7308 30.16V34.64ZM37.5 14.48C39.8257 14.48 42.0562 15.424 43.7008 17.1043C45.3453 18.7846 46.2692 21.0637 46.2692 23.44H28.7308C28.7308 21.0637 29.6547 18.7846 31.2992 17.1043C32.9438 15.424 35.1743 14.48 37.5 14.48ZM50.6538 34.64C50.6538 35.2341 50.4229 35.8038 50.0117 36.2239C49.6006 36.644 49.043 36.88 48.4615 36.88C47.8801 36.88 47.3225 36.644 46.9113 36.2239C46.5002 35.8038 46.2692 35.2341 46.2692 34.64V30.16C46.2692 29.5659 46.5002 28.9962 46.9113 28.5761C47.3225 28.156 47.8801 27.92 48.4615 27.92C49.043 27.92 49.6006 28.156 50.0117 28.5761C50.4229 28.9962 50.6538 29.5659 50.6538 30.16V34.64Z" fill="#74CE5D"/>
</svg>
