<svg width="75" height="75" viewBox="0 0 75 75" fill="none" xmlns="http://www.w3.org/2000/svg">
<path d="M59.0264 60.4433C59.4583 61.4424 59.4899 62.5771 59.1152 63.6005C58.7405 64.6238 57.9892 65.4538 57.0244 65.9101C56.0597 66.3663 54.9593 66.4124 53.9619 66.038C52.9644 65.6636 52.1501 64.8989 51.6963 63.9101L48.6016 58.412L47.1904 52.87C48.4015 53.7715 49.8795 54.2668 51.415 54.2509C53.2916 54.2314 55.067 53.4515 56.3623 52.1093C56.5105 51.9557 56.6494 51.7947 56.7822 51.6298L59.0264 60.4433ZM35.127 65.7236C34.9307 65.8389 34.7248 65.9387 34.5098 66.0195C33.5122 66.3939 32.4111 66.3479 31.4463 65.8915C30.8157 65.5932 30.2776 65.1345 29.875 64.5673L32.1787 60.4863L35.127 65.7236ZM49.5771 24.6972C50.5783 24.6973 51.568 24.9173 52.4805 25.3417C53.393 25.7662 54.2079 26.3854 54.8701 27.1591L66.2754 40.4814H66.2852C67.0257 41.2621 67.4381 42.3116 67.4336 43.4032C67.429 44.4948 67.0077 45.5403 66.2607 46.3144C65.5137 47.0885 64.5009 47.529 63.4414 47.54C62.382 47.5509 61.3606 47.1314 60.5986 46.373L57.6514 43.9374C57.3333 43.2798 56.9163 42.6676 56.4043 42.1279L56.3506 42.0712L45.0908 28.9189C44.153 27.8233 42.9938 26.9395 41.6875 26.332C40.5011 25.7802 39.22 25.4715 37.916 25.4189C38.2306 25.196 38.53 24.9548 38.8154 24.6991C38.8452 24.6988 38.8754 24.6972 38.9053 24.6972H49.5771ZM42.5898 30.622L42.8125 30.87C42.7311 30.775 42.6464 30.683 42.5605 30.5927C42.5701 30.6027 42.5804 30.6119 42.5898 30.622ZM41.54 6.55363C42.8295 6.00336 44.2483 5.85914 45.6172 6.13957C46.9862 6.42013 48.2444 7.11291 49.2314 8.1298C50.2183 9.14666 50.8908 10.4421 51.1631 11.8525C51.4354 13.2629 51.2949 14.725 50.7607 16.0536C50.2266 17.3822 49.3226 18.5183 48.1621 19.3173C47.0016 20.1162 45.6369 20.5418 44.2412 20.5419C43.3889 20.5419 42.5528 20.3818 41.7695 20.08C42.2781 18.4387 42.378 16.6902 42.0508 14.995C41.6694 13.0197 40.7257 11.1928 39.3262 9.7509C39.0713 9.48828 38.8032 9.24067 38.5234 9.00871C39.2881 7.91994 40.3318 7.0693 41.54 6.55363Z" fill="#B3181D"/>
<path d="M24.9948 17.2364C24.9948 15.8052 25.4054 14.4061 26.1745 13.2161C26.9437 12.026 28.037 11.0985 29.3161 10.5508C30.5953 10.0031 32.0028 9.85983 33.3607 10.139C34.7186 10.4183 35.9659 11.1075 36.9449 12.1195C37.9239 13.1315 38.5906 14.4209 38.8607 15.8246C39.1308 17.2283 38.9922 18.6833 38.4623 20.0056C37.9325 21.3279 37.0353 22.4581 35.8841 23.2532C34.7329 24.0483 33.3795 24.4727 31.995 24.4727C30.1384 24.4727 28.3579 23.7103 27.0451 22.3533C25.7323 20.9962 24.9948 19.1556 24.9948 17.2364ZM53.8506 44.3159L42.5378 31.0579C41.8809 30.2878 41.073 29.6711 40.1678 29.2487C39.2626 28.8263 38.2808 28.6078 37.2876 28.6078H26.7024C25.7092 28.6078 24.7274 28.8263 23.8222 29.2487C22.917 29.6711 22.1091 30.2878 21.4522 31.0579L10.1394 44.3159C9.4048 45.0929 8.99553 46.1375 9.00004 47.2239C9.00455 48.3103 9.42248 49.3513 10.1635 50.1217C10.9045 50.8921 11.909 51.3301 12.96 51.341C14.0109 51.3519 15.0237 50.9349 15.7795 50.18L22.2447 44.8121L17.3196 64.1643C16.8911 65.1586 16.8592 66.2876 17.2308 67.3061C17.6025 68.3247 18.3476 69.1506 19.3047 69.6048C20.2617 70.059 21.3534 70.1047 22.3428 69.7321C23.3322 69.3595 24.1396 68.5986 24.5898 67.6145L31.995 54.452L39.3902 67.6325C39.8404 68.6167 40.6478 69.3776 41.6372 69.7502C42.6266 70.1228 43.7183 70.0771 44.6753 69.6229C45.6324 69.1687 46.3775 68.3428 46.7492 67.3242C47.1208 66.3057 47.0889 65.1767 46.6604 64.1823L41.7453 44.8121L48.2205 50.18C48.9763 50.9349 49.9891 51.3519 51.04 51.341C52.091 51.3301 53.0955 50.8921 53.8365 50.1217C54.5775 49.3513 54.9955 48.3103 55 47.2239C55.0045 46.1375 54.5952 45.0929 53.8606 44.3159H53.8506Z" fill="#B3181D"/>
</svg>
