<svg width="75" height="75" viewBox="0 0 75 75" fill="none" xmlns="http://www.w3.org/2000/svg">
<path d="M68 58.192C68 58.9782 67.1345 59.4569 66.4685 59.0391L51.6919 49.7676C51.0259 49.3497 50.1604 49.8284 50.1604 50.6146V57.055C50.1604 57.6072 49.7127 58.055 49.1604 58.055H8C7.44772 58.055 7 57.6072 7 57.055V18.9443C7 18.392 7.44772 17.9443 8 17.9443H49.1604C49.7127 17.9443 50.1604 18.392 50.1604 18.9443V25.3847C50.1604 26.1709 51.0259 26.6496 51.6918 26.2318L66.4685 16.9608C67.1345 16.543 68 17.0217 68 17.8079V58.192Z" fill="#BC11FF"/>
</svg>
