<svg width="75" height="75" viewBox="0 0 75 75" fill="none" xmlns="http://www.w3.org/2000/svg">
<path d="M41.5 11C41.5 9.067 39.933 7.5 38 7.5C36.067 7.5 34.5 9.067 34.5 11L38 11L41.5 11ZM35.5251 66.4749C36.892 67.8417 39.108 67.8417 40.4749 66.4749L62.7487 44.201C64.1156 42.8342 64.1156 40.6181 62.7487 39.2513C61.3819 37.8844 59.1658 37.8844 57.799 39.2513L38 59.0502L18.201 39.2513C16.8342 37.8844 14.6181 37.8844 13.2513 39.2513C11.8844 40.6181 11.8844 42.8342 13.2513 44.201L35.5251 66.4749ZM38 11L34.5 11L34.5 64L38 64L41.5 64L41.5 11L38 11Z" fill="#7076DE"/>
<path d="M41.5 11C41.5 9.067 39.933 7.5 38 7.5C36.067 7.5 34.5 9.067 34.5 11L38 11L41.5 11ZM35.5251 66.4749C36.892 67.8417 39.108 67.8417 40.4749 66.4749L62.7487 44.201C64.1156 42.8342 64.1156 40.6181 62.7487 39.2513C61.3819 37.8844 59.1658 37.8844 57.799 39.2513L38 59.0502L18.201 39.2513C16.8342 37.8844 14.6181 37.8844 13.2513 39.2513C11.8844 40.6181 11.8844 42.8342 13.2513 44.201L35.5251 66.4749ZM38 11L34.5 11L34.5 64L38 64L41.5 64L41.5 11L38 11Z" fill="#7076DE"/>
</svg>
