<svg width="75" height="75" viewBox="0 0 75 75" fill="none" xmlns="http://www.w3.org/2000/svg">
<path d="M21.2607 30.8682L19.3496 36.6484H27.041L32.6963 42.3037C35.6252 45.2326 40.3748 45.2326 43.3037 42.3037L48.959 36.6484H55.7324L54.0479 31.5586L58.3818 27.2236L61.6445 37.0928H61.6172C63.5972 37.9266 65 39.9002 65 42.207V56.1035C64.9942 57.0734 64.7372 58.0248 64.2549 58.8633C63.7724 59.7019 63.0812 60.3988 62.25 60.8838V67.2207C62.25 68.7493 61.0125 70 59.5 70H56.75C55.2375 70 54 68.7493 54 67.2207V61.6621H21V67.2207C21 68.7493 19.7625 70 18.25 70H15.5C13.9875 70 12.75 68.7493 12.75 67.2207V60.8838C11.9188 60.3988 11.2276 59.7019 10.7451 58.8633C10.2628 58.0248 10.0058 57.0734 10 56.1035V42.207C10 39.928 11.4028 37.9266 13.3828 37.0928L16.8867 26.4932L21.2607 30.8682ZM22.4023 44.9863C20.1199 44.9864 18.2773 46.8485 18.2773 49.1553C18.2774 51.462 20.12 53.3241 22.4023 53.3242C24.6848 53.3242 26.5273 51.462 26.5273 49.1553C26.5273 46.8484 24.6848 44.9863 22.4023 44.9863ZM52.6523 44.9863C50.3699 44.9864 48.5273 46.8485 48.5273 49.1553C48.5274 51.462 50.37 53.3241 52.6523 53.3242C54.9348 53.3242 56.7773 51.462 56.7773 49.1553C56.7773 46.8484 54.9348 44.9863 52.6523 44.9863Z" fill="#7075DE"/>
<path d="M41.5 6C41.5 4.067 39.933 2.5 38 2.5C36.067 2.5 34.5 4.067 34.5 6L38 6L41.5 6ZM35.5251 39.4749C36.892 40.8417 39.108 40.8417 40.4749 39.4749L62.7487 17.201C64.1156 15.8342 64.1156 13.6181 62.7487 12.2513C61.3819 10.8844 59.1658 10.8844 57.799 12.2513L38 32.0503L18.201 12.2513C16.8342 10.8844 14.6181 10.8844 13.2513 12.2513C11.8844 13.6181 11.8844 15.8342 13.2513 17.201L35.5251 39.4749ZM38 6L34.5 6L34.5 37L38 37L41.5 37L41.5 6L38 6Z" fill="#7076DE"/>
</svg>
